# xmcd
#
# Track frame offsets: 
#        150
#        16064
#        30191
#        44162
#        61708
#        78746
#        88220
#        102206
#        115548
#        129367
#        145532
#        160553
#        174429
#        193230
#        208156
#        225850
#        240366
#        254175
#        269188
#        284821
#        300687
#        309935
#
# Disc length: 4331 seconds
#
# Revision: 0
# Processed by: cddbd v1.5.2PL0 Copyright (c) Steve Scherf et al.
# Submitted via: ExactAudioCopy v0.99pb4
#
DISCID=2b10e916
DTITLE=Various Artist - Viva Vlaanderen - Het Beste Van 2015 CD 2
DYEAR=2015
DGENRE=Chanson
TTITLE0=The Championettes - De Kampioenenjubilee
TTITLE1=Steve Tielens and Marc Coucke - Het Is Weer Couckenbak
TTITLE2=Haldis Feat. De Biker Boys - Haldis Een Pintje
TTITLE3=Slongs Dievanongs - iFoon
TTITLE4=Stan Van Samang - Een Ster (Live)
TTITLE5=Will Tura and Triggerfinger - Als De Zomer Weer Voorbij Zal Zijn
TTITLE6=De Romeo's - Wat Ze Doet
TTITLE7=Laura Lynn - Dans
TTITLE8=Wim Leys - Vannacht Zijn We Samen
TTITLE9=Luc Steeno - De Zomer Van Je Leven
TTITLE10=John Terra - Neem Me Mee
TTITLE11=Niels Destadsbader - Dansen
TTITLE12=Jo Vally - Dag Vrouw Van Mij
TTITLE13=Maarten Cox - Hé Jij!
TTITLE14=Lisa Del Bo - Een Parel Als Jij
TTITLE15=Nicole and Hugo - Muziek Is Ons Leven
TTITLE16=Laura Omloop - Meer
TTITLE17=Bart Herman - Mama, Moeke, Ma
TTITLE18=Karree Konfituur - Nooit Meer Nooit Meer
TTITLE19=Dana Winner - Lief Zo Lief
TTITLE20=Raymond Van Het Groenewoud - Schandalig Content
TTITLE21=Clouseau - Zin Om Te Bewegen
EXTD=
EXTT0=
EXTT1=
EXTT2=
EXTT3=
EXTT4=
EXTT5=
EXTT6=
EXTT7=
EXTT8=
EXTT9=
EXTT10=
EXTT11=
EXTT12=
EXTT13=
EXTT14=
EXTT15=
EXTT16=
EXTT17=
EXTT18=
EXTT19=
EXTT20=
EXTT21=
PLAYORDER=
